<?xml version="1.0" standalone="no"?>
<!DOCTYPE svg PUBLIC "-//W3C//DTD SVG 20010904//EN"
 "http://www.w3.org/TR/2001/REC-SVG-20010904/DTD/svg10.dtd">
<svg version="1.0" xmlns="http://www.w3.org/2000/svg"
 width="348.000000pt" height="348.000000pt" viewBox="0 0 348.000000 348.000000"
 preserveAspectRatio="xMidYMid meet">
<metadata>
Created by potrace 1.14, written by Peter Selinger 2001-2017
</metadata>
<g transform="translate(0.000000,348.000000) scale(0.100000,-0.100000)"
fill="#000000" stroke="none">
<path d="M2147 3349 c7 -7 15 -10 18 -7 3 3 -2 9 -12 12 -14 6 -15 5 -6 -5z"/>
<path d="M1258 3323 c7 -3 16 -2 19 1 4 3 -2 6 -13 5 -11 0 -14 -3 -6 -6z"/>
<path d="M1510 3322 c-8 -4 -15 -18 -15 -32 0 -23 -4 -25 -44 -25 -38 0 -46
-4 -62 -30 -10 -16 -18 -37 -18 -45 0 -13 1 -13 7 0 4 8 14 15 22 15 8 0 14 7
12 17 -1 9 3 20 9 24 8 5 9 3 5 -5 -5 -7 -1 -18 9 -25 22 -16 85 -8 85 10 0
17 17 18 22 2 6 -17 38 14 38 36 0 17 1 17 -61 -15 -26 -13 -36 -5 -19 16 8 9
21 13 36 9 20 -5 23 -3 18 10 -4 10 -12 15 -19 13 -6 -3 -12 1 -12 9 0 7 4 11
9 8 4 -3 8 0 8 5 0 12 -8 13 -30 3z m-50 -92 c0 -5 -4 -10 -10 -10 -5 0 -10 5
-10 10 0 6 5 10 10 10 6 0 10 -4 10 -10z"/>
<path d="M1870 3320 c0 -5 5 -10 10 -10 6 0 10 5 10 10 0 6 -4 10 -10 10 -5 0
-10 -4 -10 -10z"/>
<path d="M2202 3314 c10 -10 20 -15 24 -12 3 4 -5 12 -18 18 -22 12 -22 12 -6
-6z"/>
<path d="M1465 3301 c-3 -5 -1 -12 5 -16 5 -3 10 1 10 9 0 18 -6 21 -15 7z"/>
<path d="M1685 3261 c-11 -4 -20 -14 -20 -22 0 -9 -9 -13 -25 -11 -21 3 -22 2
-11 -11 13 -17 51 -19 51 -4 0 5 9 7 19 4 15 -3 18 -1 14 11 -5 12 -1 14 15
10 13 -4 23 0 26 9 3 8 11 11 18 7 7 -4 10 -3 5 1 -10 12 -68 15 -92 6z"/>
<path d="M1303 3243 c0 -10 3 -10 15 -1 11 10 17 9 27 -5 16 -22 21 -21 28 4
4 16 3 18 -8 9 -8 -7 -15 -7 -19 -1 -9 14 -43 9 -43 -6z"/>
<path d="M2535 3221 c-3 -2 0 -10 6 -18 14 -16 -2 -18 -19 -1 -9 9 -13 7 -18
-5 -3 -9 -16 -17 -29 -17 -13 0 -25 -7 -29 -15 -6 -17 9 -21 19 -5 4 6 10 8
15 5 5 -3 11 -1 14 3 3 5 26 8 51 7 31 -1 45 3 45 12 0 7 -7 10 -15 7 -10 -4
-15 0 -15 11 0 11 5 15 15 11 8 -3 15 -1 15 4 0 9 -46 10 -55 1z"/>
<path d="M1240 3215 c0 -10 29 -24 34 -17 3 6 -3 12 -14 15 -11 3 -20 4 -20 2z"/>
<path d="M2130 3183 c-24 -10 -65 -52 -57 -59 4 -4 17 5 30 19 21 25 24 26 51
12 16 -9 31 -13 33 -11 3 2 -5 10 -17 16 -18 10 -20 14 -9 21 12 7 11 9 -1 8
-8 0 -22 -3 -30 -6z"/>
<path d="M1330 3171 c0 -6 -8 -11 -19 -11 -11 0 -21 -9 -24 -22 -7 -27 -3 -33
15 -22 7 5 22 7 33 5 16 -2 18 0 8 10 -20 20 -15 31 7 19 11 -6 18 -15 15 -20
-3 -5 -1 -11 4 -14 5 -3 11 1 15 9 3 8 1 15 -4 15 -6 0 -10 8 -10 17 0 9 -3
13 -7 10 -3 -4 -12 -2 -20 4 -9 9 -13 8 -13 0z"/>
<path d="M1926 3165 c-5 -13 -34 -13 -56 0 -13 8 -13 6 -1 -8 7 -9 20 -17 27
-17 18 0 18 -14 -1 -30 -8 -7 -15 -9 -15 -5 0 4 -6 2 -14 -4 -10 -9 -16 -9
-21 -1 -4 6 -13 9 -20 6 -7 -2 -21 2 -32 9 -17 12 -19 11 -19 -8 1 -18 -4 -22
-26 -20 -30 2 -39 -22 -16 -45 9 -9 8 -12 -6 -12 -9 0 -14 5 -11 10 3 6 1 10
-4 10 -16 0 -13 -21 7 -44 14 -17 14 -18 1 -8 -15 11 -16 9 -14 -17 1 -17 8
-37 15 -46 11 -14 14 -13 25 2 9 12 10 24 4 35 -13 24 -11 35 6 35 8 0 12 -4
9 -8 -2 -4 0 -10 6 -14 10 -6 7 -45 -5 -65 -3 -5 3 -15 15 -22 11 -7 20 -20
20 -30 0 -9 4 -20 10 -23 6 -3 7 1 4 9 -3 9 -1 16 4 16 6 0 12 -10 15 -22 3
-21 4 -20 12 7 5 17 13 35 19 40 6 6 9 9 7 8 -2 -1 -12 2 -21 7 -14 8 -19 5
-23 -12 -6 -21 -7 -21 -27 -3 -24 22 -26 41 -4 53 10 5 18 21 18 35 2 32 14
46 25 28 6 -10 10 -9 14 4 5 10 3 14 -5 9 -8 -5 -9 1 -4 22 4 16 8 29 9 29 1
0 12 6 25 13 35 19 47 4 20 -26 -18 -21 -19 -23 -3 -12 30 22 35 33 23 47 -10
12 -4 17 16 14 5 -1 6 5 3 13 -7 17 19 30 29 15 8 -14 34 9 28 24 -6 16 -62
17 -68 2z m-96 -100 c0 -8 -4 -15 -10 -15 -5 0 -7 7 -4 15 4 8 8 15 10 15 2 0
4 -7 4 -15z m-26 -36 c-8 -13 -24 -1 -24 18 0 13 3 13 15 3 8 -7 12 -16 9 -21z
m-3 -32 c-1 -12 -15 -9 -19 4 -3 6 1 10 8 8 6 -3 11 -8 11 -12z m-61 -37 c0
-5 -2 -10 -4 -10 -3 0 -8 5 -11 10 -3 6 -1 10 4 10 6 0 11 -4 11 -10z"/>
<path d="M1078 3150 c-21 -10 -38 -16 -38 -13 0 3 -7 0 -15 -7 -13 -11 -13
-15 -3 -22 10 -7 10 -8 -2 -7 -20 3 -50 -11 -50 -23 0 -5 4 -6 10 -3 10 6 46
-14 49 -27 2 -12 9 -14 18 -4 5 5 2 6 -6 1 -10 -6 -12 -4 -7 4 6 9 13 8 28 -6
19 -17 21 -17 44 12 17 22 24 25 24 13 0 -15 4 -15 40 4 22 12 40 26 40 31 0
5 6 7 13 4 16 -6 50 18 53 38 1 8 -2 13 -7 9 -5 -3 -6 -11 -3 -17 4 -7 -1 -4
-11 5 -17 15 -20 15 -54 -3 -46 -25 -75 -25 -43 -1 13 10 20 21 16 24 -10 11
-44 -16 -44 -35 0 -10 -5 -15 -10 -12 -6 3 -7 17 -4 31 7 28 9 28 -38 4z m22
-14 c0 -3 -4 -8 -10 -11 -5 -3 -10 -1 -10 4 0 6 5 11 10 11 6 0 10 -2 10 -4z
m-7 -35 c4 -1 6 -4 5 -8 -5 -12 -31 -13 -45 -1 -18 15 -6 30 15 19 9 -5 20 -9
25 -10z"/>
<path d="M1193 3155 c0 -8 4 -12 9 -9 4 3 8 9 8 15 0 5 -4 9 -8 9 -5 0 -9 -7
-9 -15z"/>
<path d="M2010 3154 c0 -8 -4 -14 -10 -14 -18 0 -10 -28 9 -33 25 -6 49 8 27
16 -9 4 -16 11 -16 17 0 6 4 9 9 5 5 -3 12 -1 15 4 3 5 -3 11 -14 14 -13 3
-20 0 -20 -9z"/>
<path d="M990 3145 c-7 -9 -10 -18 -7 -22 4 -3 9 2 13 11 3 9 11 13 17 9 6 -3
7 -1 3 5 -9 15 -11 15 -26 -3z"/>
<path d="M1810 3145 c-9 -11 -10 -19 -3 -26 8 -8 11 -6 10 7 -1 11 4 18 11 16
8 -1 11 2 7 8 -8 13 -10 13 -25 -5z"/>
<path d="M859 3135 c-1 -5 -1 -14 0 -19 1 -5 -4 -4 -12 2 -16 14 -28 6 -20
-14 3 -8 0 -14 -6 -14 -6 0 -11 5 -11 12 0 17 -16 -2 -25 -30 l-6 -22 45 24
c25 13 46 22 46 19 0 -4 9 2 20 12 23 21 27 44 4 24 -13 -10 -17 -10 -25 2 -5
8 -9 10 -10 4z"/>
<path d="M1413 3123 c19 -22 23 -43 7 -43 -5 0 -10 7 -10 15 0 12 -4 13 -25 3
-25 -11 -30 -19 -18 -31 3 -4 12 1 19 11 13 16 13 16 14 -2 0 -11 7 -27 16
-37 14 -16 18 -16 31 -3 8 8 19 12 24 9 5 -4 9 -1 9 5 0 7 -9 14 -20 17 -12 3
-20 14 -20 27 0 12 -10 27 -22 35 -22 13 -23 13 -5 -6z m27 -61 c0 -13 -12
-22 -22 -16 -10 6 -1 24 13 24 5 0 9 -4 9 -8z"/>
<path d="M1445 3130 c3 -5 8 -10 11 -10 2 0 4 5 4 10 0 6 -5 10 -11 10 -5 0
-7 -4 -4 -10z"/>
<path d="M1975 3090 c-3 -5 -1 -10 4 -10 6 0 11 5 11 10 0 6 -2 10 -4 10 -3 0
-8 -4 -11 -10z"/>
<path d="M1680 3070 c0 -5 5 -10 10 -10 6 0 10 5 10 10 0 6 -4 10 -10 10 -5 0
-10 -4 -10 -10z"/>
<path d="M2278 3064 c-4 -3 -14 -7 -25 -9 -10 -2 -20 -4 -22 -4 -2 -1 2 -7 8
-15 8 -10 9 -16 1 -21 -5 -3 -10 1 -10 9 0 8 -4 18 -10 21 -6 4 -10 -7 -10
-25 0 -18 4 -29 10 -25 6 3 10 2 10 -4 0 -5 -14 -8 -31 -6 -30 4 -30 3 -26
-31 3 -19 1 -31 -4 -28 -5 3 -7 9 -4 14 3 4 -2 10 -10 14 -8 3 -17 1 -20 -5
-4 -5 -11 -6 -17 -3 -6 4 -8 2 -5 -3 4 -6 0 -16 -8 -23 -11 -9 -15 -9 -15 -1
0 7 -5 9 -11 6 -6 -4 -20 2 -32 13 -27 24 -81 39 -74 20 2 -7 9 -12 15 -11 6
2 9 -3 6 -11 -6 -16 34 -48 50 -39 6 3 8 3 4 -2 -4 -4 -2 -15 5 -23 9 -13 9
-14 0 -8 -8 4 -13 2 -13 -5 0 -6 -8 -9 -18 -7 -15 4 -19 -1 -19 -25 0 -25 2
-27 12 -13 7 9 17 16 24 16 12 0 15 -13 4 -24 -11 -10 -12 -36 -2 -36 18 0 24
5 21 19 -2 9 2 12 12 8 18 -7 46 17 46 40 0 10 4 13 13 7 18 -14 87 -1 87 16
0 4 9 10 20 13 11 3 20 11 20 17 0 9 -3 10 -13 1 -10 -8 -14 -7 -14 2 0 7 9
14 19 14 10 1 18 -5 18 -13 0 -13 5 -12 28 3 15 10 48 20 73 21 47 3 60 -7 63
-48 1 -8 8 -13 16 -12 8 2 25 6 38 8 23 5 85 54 68 54 -5 0 -3 7 4 15 7 8 16
13 20 10 5 -3 11 -1 15 5 4 6 10 8 15 5 5 -3 11 -1 15 5 8 12 72 13 79 1 9
-13 58 0 52 14 -2 7 1 19 7 26 10 11 9 11 -5 0 -11 -8 -26 -10 -40 -5 -13 4
-30 8 -38 8 -10 1 -15 11 -15 28 1 16 -3 24 -10 20 -5 -3 -21 -6 -35 -5 l-25
2 24 -7 c35 -11 42 -37 8 -28 -20 5 -30 0 -46 -22 -14 -19 -20 -22 -21 -11 0
9 -8 23 -17 30 -16 13 -17 12 -5 -3 8 -10 9 -19 3 -22 -5 -4 -13 -1 -16 5 -4
5 -14 8 -22 5 -10 -4 -13 -1 -11 12 2 9 10 16 16 15 7 -2 12 2 12 7 0 12 -23
13 -34 3 -15 -15 -56 -9 -62 9 -6 20 -21 23 -44 9 -8 -6 -19 -7 -25 -3 -5 3
-16 7 -23 8 -11 2 -11 0 0 -13 11 -14 10 -16 -14 -9 -17 4 -28 2 -28 -4 0 -5
5 -10 12 -10 6 0 9 -3 5 -6 -3 -3 -16 1 -29 10 -18 13 -19 16 -5 16 9 0 17 7
17 15 0 16 -3 18 -12 9z m132 -28 c0 -11 -19 -15 -25 -6 -3 5 1 10 9 10 9 0
16 -2 16 -4z m20 -41 c19 -23 8 -25 -14 -4 -11 11 -15 19 -9 19 6 0 16 -7 23
-15z m37 0 c0 -8 -4 -15 -9 -15 -10 0 -11 14 -1 23 9 10 10 9 10 -8z m148 6
c3 -5 1 -12 -5 -16 -5 -3 -10 1 -10 9 0 18 6 21 15 7z m-335 -5 c0 -3 -4 -8
-10 -11 -5 -3 -10 -1 -10 4 0 6 5 11 10 11 6 0 10 -2 10 -4z m105 -5 c3 -6 -5
-15 -17 -22 -20 -11 -21 -10 -11 3 7 8 10 18 6 21 -3 4 -1 7 5 7 6 0 13 -4 17
-9z m25 -30 c0 -6 -4 -13 -10 -16 -5 -3 -10 1 -10 9 0 9 5 16 10 16 6 0 10 -4
10 -9z m93 -37 c-3 -8 -7 -14 -10 -14 -3 0 -2 7 1 15 3 9 -1 18 -9 21 -8 4
-15 11 -15 17 0 5 9 2 19 -7 11 -10 17 -24 14 -32z m-267 19 c-3 -17 -26 -32
-26 -16 0 8 20 33 26 33 1 0 1 -8 0 -17z m25 -6 c-10 -9 -11 -8 -5 6 3 10 9
15 12 12 3 -3 0 -11 -7 -18z m-221 -13 c0 -16 -16 -19 -25 -4 -8 13 4 32 16
25 5 -4 9 -13 9 -21z m415 16 c3 -5 -1 -10 -10 -10 -9 0 -13 5 -10 10 3 6 8
10 10 10 2 0 7 -4 10 -10z m-281 -58 c-5 -16 -5 -16 9 0 8 10 17 15 20 11 12
-12 7 -22 -13 -28 -11 -4 -17 -11 -14 -17 4 -7 2 -8 -5 -4 -6 4 -10 20 -9 36
1 16 6 27 10 24 4 -3 5 -12 2 -22z m-64 -20 c0 -13 -12 -22 -22 -16 -10 6 -1
24 13 24 5 0 9 -4 9 -8z"/>
<path d="M733 3045 c0 -8 4 -12 9 -9 4 3 8 9 8 15 0 5 -4 9 -8 9 -5 0 -9 -7
-9 -15z"/>
<path d="M995 3051 c-3 -5 -2 -12 3 -15 5 -3 9 1 9 9 0 17 -3 19 -12 6z"/>
<path d="M1516 3038 c3 -4 11 -5 19 -1 21 7 19 12 -4 10 -11 0 -18 -5 -15 -9z"/>
<path d="M2575 3039 c-4 -6 -5 -12 -2 -15 2 -3 7 2 10 11 7 17 1 20 -8 4z"/>
<path d="M1470 3019 c0 -5 5 -7 10 -4 6 3 10 8 10 11 0 2 -4 4 -10 4 -5 0 -10
-5 -10 -11z"/>
<path d="M1505 3010 c-3 -4 4 -15 15 -25 14 -12 18 -25 14 -41 -4 -13 -3 -36
0 -50 6 -22 11 -25 36 -22 16 2 27 1 25 -3 -3 -4 2 -12 10 -19 18 -15 19 -9 3
25 -12 27 -23 32 -33 15 -4 -6 -11 -8 -16 -4 -5 3 -7 10 -3 15 3 5 10 7 15 4
5 -4 9 2 10 12 0 10 2 26 4 36 3 14 1 16 -10 7 -8 -7 -13 -16 -12 -20 2 -7 -3
-10 -19 -10 -4 0 -2 6 4 13 10 12 12 17 12 38 0 5 5 7 12 3 7 -4 8 -3 4 4 -4
6 -13 9 -21 5 -9 -3 -15 1 -15 9 0 15 -27 21 -35 8z"/>
<path d="M825 3002 c-3 -3 -1 -10 5 -17 11 -13 2 -55 -12 -55 -6 0 -8 7 -4 15
6 17 -9 21 -19 5 -4 -7 -11 -7 -18 -2 -17 14 -44 11 -44 -5 0 -17 14 -17 20 0
3 9 8 9 17 1 9 -9 5 -15 -19 -27 -30 -15 -49 -8 -36 13 9 14 -8 13 -23 -2 -18
-18 -27 -1 -11 19 13 16 12 17 -3 4 -14 -10 -21 -11 -32 -2 -11 9 -16 9 -22 0
-5 -8 -3 -10 7 -4 11 6 11 5 3 -4 -12 -13 -63 -22 -77 -14 -4 3 -2 11 4 19 11
13 9 13 -14 3 -15 -7 -24 -15 -22 -19 2 -4 -7 -17 -21 -29 -14 -12 -22 -26
-19 -31 3 -6 -2 -10 -11 -10 -16 0 -16 -2 -2 -17 9 -10 16 -30 16 -46 0 -23
-3 -26 -16 -15 -13 11 -14 10 -8 -10 5 -16 3 -22 -7 -22 -8 0 -21 -8 -30 -18
-18 -20 -23 -37 -8 -27 5 3 13 0 17 -6 4 -7 3 -9 -3 -6 -15 10 -58 -27 -49
-41 10 -17 26 -15 20 3 -4 8 -2 15 3 15 20 0 22 -14 6 -32 -15 -17 -15 -18 3
-19 10 0 14 -3 8 -5 -7 -3 -10 -15 -8 -27 2 -12 2 -16 -2 -9 -7 15 -31 16 -40
0 -4 -6 -3 -8 4 -4 6 3 13 2 17 -4 3 -5 2 -10 -4 -10 -8 0 -8 -9 -1 -40 0 -3
5 3 11 13 6 9 14 15 20 12 5 -4 12 1 15 9 3 9 10 13 16 10 5 -3 0 -13 -11 -21
-12 -8 -19 -19 -16 -24 4 -5 -1 -9 -9 -9 -9 0 -16 -7 -16 -15 0 -18 -14 -19
-42 -4 -16 9 -22 8 -29 -2 -6 -10 -2 -16 14 -21 17 -5 18 -6 4 -7 -10 -1 -27
4 -38 9 -11 6 -18 7 -17 3 2 -4 -1 -8 -7 -8 -5 0 -10 14 -10 32 0 18 -6 37
-12 43 -7 5 -11 7 -9 4 3 -3 -10 -29 -28 -57 -31 -49 -46 -83 -52 -117 -2 -8
-8 -16 -14 -18 -5 -2 -8 -8 -5 -12 3 -5 -4 -19 -15 -30 -11 -11 -18 -25 -15
-30 3 -5 1 -27 -4 -47 -6 -21 -11 -55 -13 -75 -1 -21 -5 -38 -8 -38 -3 0 -2
-35 1 -77 7 -81 4 -119 -14 -141 -6 -7 -12 -48 -13 -90 -2 -42 -6 -94 -10
-116 -5 -27 -3 -41 7 -47 11 -7 11 -9 1 -9 -11 0 -10 -3 1 -14 8 -9 12 -26 10
-40 -3 -14 -1 -26 5 -26 5 0 12 -19 16 -42 4 -23 12 -45 18 -49 6 -4 13 -21
14 -38 2 -18 12 -46 21 -64 9 -18 17 -35 18 -38 0 -3 8 -13 18 -23 20 -20 22
-33 6 -38 -9 -3 -8 -21 2 -68 l14 -65 38 1 c27 0 34 -2 27 -11 -7 -8 -6 -15 2
-22 17 -13 51 -27 61 -25 4 1 7 -5 7 -13 0 -8 9 -15 19 -15 28 0 52 -11 45
-21 -3 -5 2 -6 10 -3 9 4 16 1 16 -6 0 -7 7 -10 15 -7 21 9 28 -10 8 -22 -10
-5 -14 -13 -9 -18 5 -4 11 -2 13 5 3 6 14 12 24 12 11 0 17 -4 14 -10 -3 -5
-1 -10 4 -10 6 0 11 -7 11 -15 0 -9 6 -15 13 -14 28 3 37 -2 37 -22 0 -12 5
-19 13 -16 6 2 19 -1 27 -8 16 -14 39 -18 85 -15 17 1 24 4 15 7 -19 8 -47 41
-65 78 -8 17 -22 40 -31 53 -15 20 -15 22 -1 16 9 -3 15 -11 14 -17 -4 -22 31
-17 62 8 17 15 31 22 31 16 0 -6 -5 -11 -10 -11 -6 0 -9 -3 -8 -8 0 -4 -2 -15
-7 -25 -6 -14 -10 -15 -21 -6 -18 15 -18 -2 1 -27 8 -10 15 -27 15 -38 0 -14
6 -17 27 -13 28 5 44 -7 93 -70 14 -18 28 -33 33 -33 14 0 7 27 -13 50 -11 13
-20 26 -20 29 1 3 14 -10 31 -29 16 -19 27 -41 24 -48 -2 -7 2 -15 10 -18 8
-3 17 -14 20 -25 4 -10 15 -19 25 -19 10 0 22 -5 26 -12 5 -7 2 -9 -7 -4 -8 4
-5 0 5 -8 24 -19 40 -21 30 -3 -4 7 -3 9 2 4 5 -5 9 -14 9 -20 0 -7 9 -11 20
-9 13 1 24 -6 30 -19 13 -28 60 -38 51 -12 -6 17 -5 17 7 1 9 -11 18 -14 27
-8 12 7 12 10 -2 15 -10 4 -20 17 -24 28 -4 12 -16 30 -27 39 -16 14 -17 21
-7 32 9 12 16 13 30 4 10 -7 18 -16 17 -21 -1 -5 4 -12 11 -14 6 -3 12 1 12 7
0 17 39 2 69 -26 14 -13 33 -24 41 -24 9 0 21 -5 27 -11 6 -6 17 -8 24 -4 9 6
8 11 -6 21 -15 11 -15 15 -4 31 14 18 41 30 37 16 -5 -19 15 -54 28 -49 7 3
16 1 19 -4 4 -6 1 -10 -4 -10 -6 0 -11 -4 -11 -10 0 -5 7 -10 16 -10 9 0 12
-5 8 -12 -4 -6 -3 -8 4 -4 6 3 8 22 6 43 -3 23 0 40 8 45 9 6 8 8 -6 6 -10 -2
-25 7 -34 21 -16 23 -15 23 5 17 31 -10 39 24 16 66 -10 18 -22 45 -28 60 -13
34 -51 82 -142 176 -82 86 -103 82 -60 -11 16 -36 22 -59 16 -68 -8 -11 -12
-10 -24 5 -8 11 -15 30 -15 43 0 13 -5 23 -11 23 -7 0 -34 16 -62 36 -42 31
-54 35 -69 25 -25 -16 -36 -7 -31 24 4 16 11 23 22 21 37 -9 61 -19 61 -26 0
-4 7 -11 16 -14 12 -4 15 -2 10 9 -3 8 -2 14 2 13 4 -2 28 3 53 11 26 7 72 11
102 9 34 -2 53 1 50 7 -3 6 4 0 14 -13 12 -15 32 -24 56 -26 20 -2 43 -9 52
-16 10 -8 15 -9 15 -1 0 6 5 11 10 11 6 0 10 -6 10 -14 0 -9 10 -13 28 -11 44
3 57 14 35 30 -13 9 -20 10 -25 2 -5 -8 -11 -7 -22 2 -8 7 -24 10 -36 6 -21
-7 -26 7 -14 39 7 17 49 22 59 7 3 -6 44 -7 98 -4 50 3 128 6 172 7 44 1 103
5 130 9 108 16 115 16 132 -1 16 -16 16 -16 10 0 -5 14 2 18 41 23 26 3 58 9
72 13 27 9 232 8 293 -1 51 -7 57 -15 28 -37 -27 -19 -35 -48 -20 -66 13 -16
-5 -60 -31 -74 -11 -6 -20 -15 -20 -21 0 -6 4 -8 9 -5 8 5 22 -73 15 -82 -1
-2 -11 5 -22 16 -12 12 -17 29 -15 48 2 16 5 41 7 57 1 15 6 30 9 34 14 14 7
32 -10 26 -10 -4 -20 -9 -23 -13 -3 -3 -17 -13 -31 -22 -34 -21 -86 -101 -100
-150 -5 -21 -16 -38 -23 -38 -18 0 -27 -23 -15 -41 12 -19 11 -42 -1 -34 -5 3
-10 -3 -10 -14 0 -13 5 -19 14 -15 8 3 17 0 21 -6 4 -7 0 -10 -11 -8 -21 4
-41 -50 -29 -79 4 -10 8 -33 8 -51 0 -18 4 -35 8 -38 5 -3 7 -9 4 -14 -3 -5
11 -2 32 6 23 10 39 12 41 6 2 -6 14 0 28 13 14 13 38 27 54 30 26 6 63 35 45
35 -5 0 0 9 10 20 10 11 24 20 31 20 7 0 29 9 48 21 20 12 36 16 36 11 0 -6
-9 -14 -20 -17 -11 -3 -20 -11 -20 -16 0 -6 -4 -7 -10 -4 -5 3 -10 1 -10 -5 0
-6 -6 -8 -12 -4 -10 5 -10 4 -2 -5 13 -14 49 1 71 31 8 10 21 14 33 11 13 -4
20 0 20 10 0 17 24 40 33 30 4 -3 2 -12 -3 -18 -7 -9 -6 -14 4 -18 8 -3 20 1
26 8 7 8 16 12 21 9 5 -3 9 0 9 5 0 6 7 11 15 11 8 0 15 5 15 11 0 7 -10 9
-25 7 -32 -7 -42 8 -16 23 10 7 17 18 14 25 -3 8 10 20 31 31 20 9 36 20 36
24 0 4 8 5 19 2 10 -3 22 0 25 6 4 7 1 8 -8 5 -9 -3 -16 -1 -16 5 0 21 38 11
43 -11 4 -15 -1 -29 -19 -45 -14 -13 -29 -23 -35 -23 -5 0 -9 -8 -9 -17 0 -13
-3 -14 -12 -5 -17 17 -33 15 -18 -3 10 -13 10 -19 -3 -33 -11 -12 -13 -22 -6
-35 13 -22 33 -23 25 -1 -5 13 -2 15 14 11 17 -4 20 -2 15 13 -4 14 6 31 36
59 22 23 45 39 49 36 13 -8 71 55 64 68 -4 7 2 3 14 -7 19 -16 22 -17 22 -3 0
8 -6 17 -12 20 -10 3 -10 7 -1 18 6 8 11 19 12 24 1 19 46 84 59 85 23 0 12
22 -17 33 -16 6 -32 19 -35 30 -4 17 -3 18 13 3 21 -19 35 -21 25 -3 -5 7 0 6
11 -3 10 -8 16 -10 12 -3 -13 22 13 24 39 4 15 -12 22 -21 17 -21 -5 0 -14 5
-21 12 -8 8 -12 8 -12 1 0 -6 7 -16 15 -23 8 -7 15 -19 15 -27 0 -12 -3 -13
-13 -5 -10 8 -19 3 -40 -23 -37 -47 -51 -85 -32 -85 8 0 15 -5 15 -10 0 -6 12
4 28 21 15 17 34 39 43 49 9 9 19 28 22 41 4 13 17 35 30 49 13 14 37 46 53
70 15 25 36 53 46 63 18 18 54 24 43 7 -8 -13 5 -13 38 3 16 7 27 20 27 32 -1
19 -1 19 -14 3 -7 -10 -16 -18 -20 -18 -12 0 -6 36 10 58 16 24 39 20 30 -5
-3 -8 -1 -11 4 -8 6 3 10 17 10 29 0 13 7 37 15 52 8 16 15 36 15 45 0 29 30
89 44 89 8 0 16 13 18 30 4 24 -1 35 -21 51 -14 11 -20 18 -13 14 8 -4 12 2
12 20 0 14 7 39 15 54 8 16 11 31 8 35 -6 6 -6 38 1 101 1 11 5 26 9 32 5 7 4
21 -1 30 -5 10 -9 38 -10 63 0 25 -6 74 -12 110 -7 36 -13 75 -14 86 0 12 -5
20 -11 18 -5 -2 -20 12 -32 31 -12 19 -18 35 -14 35 5 0 11 -7 15 -15 3 -8 13
-15 23 -14 11 0 13 3 6 6 -7 2 -13 11 -13 18 0 7 -5 15 -12 17 -6 2 -12 23
-14 47 -1 28 -9 49 -23 62 -11 11 -23 19 -26 19 -7 0 -5 14 2 20 4 3 3 -1 -2
-9 -5 -9 -4 -12 3 -7 12 7 5 36 -9 36 -5 0 -9 5 -9 11 0 7 -10 20 -22 31 -13
11 -23 23 -23 27 0 24 -77 70 -88 52 -2 -3 -2 0 0 8 2 7 -6 22 -18 32 -26 22
-33 24 -24 7 4 -7 0 -4 -9 6 -14 17 -16 17 -22 3 -3 -9 -10 -14 -15 -11 -11 6
-39 -13 -39 -27 0 -5 7 -9 16 -9 9 0 12 5 8 12 -4 7 -3 8 5 4 8 -6 9 -12 2
-20 -11 -13 -9 -14 39 -18 11 -1 20 -6 20 -10 0 -4 11 -8 24 -8 13 0 26 -5 28
-10 2 -6 13 -12 26 -13 14 -1 18 -5 12 -11 -16 -16 -12 -30 5 -16 12 10 15 10
15 -2 0 -9 -8 -15 -17 -15 -38 0 -45 -3 -39 -18 3 -9 0 -15 -10 -15 -10 0 -14
6 -10 15 4 12 -1 15 -23 13 -19 -1 -27 -7 -24 -15 3 -7 11 -13 19 -13 9 0 11
-6 7 -17 -6 -16 -5 -16 10 -4 16 12 22 8 18 -13 -3 -15 33 -35 46 -25 14 12
27 -6 17 -23 -4 -7 -3 -8 4 -4 7 4 12 1 12 -10 0 -13 -6 -15 -30 -10 -25 5
-30 2 -30 -15 0 -12 -4 -17 -11 -14 -6 4 -8 13 -5 20 2 7 -6 23 -20 36 -13 12
-26 31 -30 41 -3 10 -10 15 -16 12 -6 -4 -9 -3 -5 2 8 13 -20 47 -32 40 -6 -4
-8 1 -6 12 1 9 -3 26 -11 36 -11 16 -16 17 -29 6 -13 -11 -14 -10 -10 3 4 8 2
18 -3 21 -5 3 -12 -4 -15 -15 -3 -12 -10 -18 -16 -14 -6 3 -11 1 -11 -4 0 -6
-18 -11 -40 -11 -30 0 -40 4 -40 16 0 14 -3 14 -15 4 -14 -11 -19 -7 -16 12 0
4 -6 5 -14 2 -17 -7 -20 -24 -4 -24 6 0 17 -6 24 -14 12 -12 12 -15 1 -19 -7
-3 -18 -1 -24 5 -8 8 -9 5 -6 -9 3 -11 -1 -25 -11 -33 -13 -11 -15 -10 -9 4 3
9 2 16 -4 16 -6 0 -12 -4 -14 -10 -3 -9 -131 20 -166 39 -12 7 -22 7 -29 0 -6
-6 -10 -4 -10 8 0 29 18 45 45 38 15 -4 21 -2 17 4 -3 6 0 9 7 6 18 -6 52 41
36 51 -7 5 -8 3 -2 -7 6 -11 2 -10 -16 2 -14 9 -35 15 -47 13 -12 -2 -25 1
-28 6 -6 10 -36 2 -46 -12 -3 -4 -14 0 -25 10 -15 15 -25 17 -51 9 -18 -6 -34
-18 -37 -29 -2 -11 -9 -17 -15 -14 -6 4 -22 0 -35 -9 -14 -9 -29 -14 -34 -11
-6 3 -15 -1 -21 -8 -7 -8 -30 -17 -52 -21 -25 -4 -43 -14 -50 -27 -9 -16 -8
-19 3 -13 10 6 10 5 1 -5 -6 -7 -22 -18 -35 -24 -12 -7 -22 -18 -21 -24 2 -7
-4 -12 -13 -12 -11 0 -14 -6 -9 -20 7 -22 -10 -28 -19 -7 -5 9 -7 9 -12 -1 -4
-10 -9 -10 -20 -2 -7 7 -19 8 -26 4 -7 -5 -20 -9 -28 -9 -8 0 -14 -5 -13 -12
3 -13 -16 -11 -61 7 -32 12 -57 40 -49 53 3 5 -4 4 -15 -2 -15 -8 -23 -7 -32
4 -6 7 -18 11 -26 8 -8 -3 -20 0 -28 6 -7 6 -16 8 -19 5 -10 -10 -42 30 -42
51 0 15 7 20 30 20 17 1 28 5 25 10 -3 6 -9 9 -15 7 -5 -1 -2 4 8 11 9 8 17
20 17 27 0 10 -4 10 -17 -1 -10 -7 -8 -2 5 12 26 30 28 45 6 53 -14 5 -15 4
-5 -8 9 -11 8 -15 -4 -20 -9 -3 -13 -2 -10 4 10 16 -11 11 -26 -6 -15 -18 -22
-47 -9 -39 5 3 11 1 14 -4 11 -16 -11 -22 -24 -6 -7 8 -15 15 -19 15 -12 0 -7
-75 6 -88 7 -7 13 -18 13 -23 0 -15 -17 -10 -24 6 -5 14 -9 14 -31 -1 -30 -20
-44 -12 -24 13 13 17 13 17 -5 3 -11 -8 -21 -14 -22 -12 -9 8 -64 20 -64 14 0
-4 -51 -7 -113 -7 -111 0 -157 11 -157 37 0 9 -3 9 -12 0 -7 -7 -17 -12 -23
-12 -5 0 -3 4 5 10 11 7 9 11 -13 19 -37 14 -42 14 -57 -4 -13 -15 -35 -11
-25 6 7 10 6 10 -42 14 -18 1 -39 10 -48 19 -9 9 -21 14 -26 11 -5 -4 -6 1 -3
9 4 10 1 16 -9 16 -24 0 -30 -18 -13 -36 9 -8 16 -18 16 -21 0 -4 -3 -4 -6 0
-3 3 -26 -1 -52 -8 -25 -8 -49 -12 -53 -9 -4 2 -11 -2 -16 -9 -10 -17 -73 -48
-83 -42 -4 2 -16 -5 -26 -16 -27 -30 -136 -75 -153 -64 -17 10 -13 28 4 21 9
-3 15 0 15 8 0 8 15 27 33 43 18 16 31 35 29 42 -3 8 4 12 19 9 17 -2 27 3 34
19 5 12 18 24 28 27 12 3 16 9 11 17 -4 8 -3 10 5 5 6 -4 8 -12 5 -18 -4 -6
-1 -9 6 -6 7 2 14 12 16 21 2 13 -6 17 -34 18 -21 1 -43 1 -49 0 -20 -3 -15
27 8 50 17 17 23 19 30 8 6 -10 11 -6 19 15 9 25 23 29 26 8 0 -4 4 -15 9 -25
9 -22 67 -15 108 15 24 17 31 18 45 6 27 -21 61 -38 76 -38 7 0 19 -7 26 -15
15 -18 34 -20 24 -2 -6 9 -4 9 7 1 8 -5 21 -10 29 -9 8 1 22 -2 32 -7 11 -5
18 -3 22 8 3 8 11 12 16 9 8 -5 7 -11 -1 -21 -7 -8 -7 -14 -1 -14 5 0 12 6 15
14 6 16 57 10 57 -8 0 -6 4 -5 9 3 5 8 8 23 6 34 -3 13 0 17 10 14 7 -3 16 1
19 10 5 12 9 13 21 3 11 -9 15 -9 15 -1 0 7 6 9 13 6 6 -4 4 0 -7 9 -16 13
-21 13 -41 0 -16 -10 -25 -12 -30 -5 -3 6 -4 11 0 11 3 0 1 9 -4 19 -10 17
-14 18 -50 5 -22 -7 -47 -11 -56 -8 -10 4 -15 0 -15 -10 0 -9 -4 -16 -10 -16
-5 0 -10 4 -10 9 0 4 -11 6 -24 4 -18 -4 -26 0 -31 16 -3 12 -11 21 -16 21
-13 0 -11 -14 3 -28 9 -9 8 -12 -6 -12 -9 0 -15 4 -12 9 3 5 -1 14 -9 21 -11
9 -15 9 -15 1 0 -7 -5 -9 -11 -6 -6 4 -8 13 -5 21 3 7 -2 21 -11 30 -16 16
-15 16 7 9 14 -4 28 -13 32 -19 5 -7 8 -6 8 5 0 8 16 30 35 49 19 19 35 41 35
49 0 8 3 11 7 8 3 -4 12 -2 19 4 13 11 81 2 89 -12 3 -4 13 -5 22 -2 11 4 14
3 9 -5 -5 -8 2 -12 19 -12 15 0 24 -4 20 -10 -4 -6 -11 -8 -16 -4 -6 3 -5 -3
3 -15 15 -25 28 -27 28 -6 0 8 5 15 10 15 6 0 10 -4 10 -9 0 -5 8 -8 18 -7 9
0 16 -4 15 -11 -1 -6 11 -15 28 -18 17 -4 33 -13 36 -20 2 -8 11 -11 19 -8 8
3 14 1 14 -5 0 -6 -5 -12 -11 -14 -9 -3 -9 -10 0 -28 11 -24 11 -24 -3 -6 -9
11 -17 17 -17 13 -1 -4 -2 -13 -3 -19 -1 -7 -7 -12 -14 -10 -7 1 -12 -3 -12
-9 0 -7 10 -9 25 -5 19 5 23 3 19 -8 -3 -9 6 -26 22 -41 15 -14 25 -26 23 -26
-2 -1 -23 -2 -46 -3 -23 -2 -48 -7 -55 -13 -7 -6 -26 -13 -41 -17 -15 -4 -25
-10 -23 -15 10 -15 53 -18 71 -5 9 7 23 10 31 7 8 -3 14 0 14 6 0 6 7 11 15
11 8 0 23 9 32 20 10 11 23 20 30 20 18 0 16 25 -2 40 -8 7 -15 18 -15 24 0 6
5 4 10 -4 5 -8 10 -11 10 -6 0 5 7 3 15 -4 12 -10 18 -10 30 0 13 11 18 10 29
-6 12 -15 16 -16 29 -5 16 12 12 46 -3 36 -5 -3 -17 5 -27 18 -10 12 -25 21
-34 19 -10 -2 -19 5 -22 18 -4 17 -2 20 16 15 19 -5 19 -4 -3 9 l-25 15 27 1
c19 0 25 4 23 18 -2 9 -4 20 -4 24 -1 3 -14 4 -31 2 -18 -3 -30 -1 -30 6 0 6
-4 8 -10 5 -12 -7 -14 -26 -2 -24 26 4 22 -4 -8 -15 -30 -10 -38 -10 -58 5
-12 9 -31 15 -42 12 -15 -4 -20 0 -20 16 0 12 4 19 10 16 6 -3 7 1 4 9 -3 9
-15 16 -25 16 -24 0 -24 8 -2 32 13 15 14 19 3 16 -8 -2 -15 3 -16 10 -1 6 -2
17 -3 22 0 6 -5 10 -10 10 -14 0 -8 -34 9 -47 13 -11 11 -12 -10 -9 -18 2 -25
9 -25 25 0 26 -45 57 -69 48 -20 -8 -21 -27 -1 -27 8 0 15 -4 15 -10 0 -12
-13 -13 -24 -3 -4 4 -17 8 -29 8 -14 0 -23 7 -25 20 -3 11 -11 24 -18 28 -8 5
-12 12 -9 18 4 5 -1 9 -9 9 -9 0 -16 -7 -16 -15 0 -10 -9 -14 -30 -11 -25 3
-28 1 -19 -11 7 -7 14 -11 17 -8 7 6 32 -14 32 -26 0 -5 -5 -9 -11 -9 -5 0 -7
5 -3 12 4 7 3 8 -4 4 -7 -4 -12 -13 -12 -20 0 -8 -9 -16 -19 -19 -14 -3 -18
-1 -14 10 3 8 0 13 -8 11 -8 -2 -13 3 -11 10 1 7 -5 12 -15 10 -13 -2 -17 2
-15 17 2 11 2 18 0 15 -2 -3 -10 -14 -18 -24 -8 -11 -10 -17 -3 -13 7 5 16 -1
23 -13 10 -18 7 -24 -12 -21 -5 0 -8 -6 -8 -14 0 -8 -5 -15 -11 -15 -7 0 -9
10 -5 24 3 14 1 28 -4 31 -6 4 -7 11 -4 17 4 7 2 8 -5 4 -9 -6 -9 -11 -1 -21
17 -20 -17 -76 -45 -74 -5 0 -4 3 3 6 6 2 12 12 12 21 0 14 -2 15 -10 2 -7
-12 -12 -11 -30 5 -11 10 -19 26 -18 34 1 9 -1 22 -5 28 -11 17 -60 -15 -53
-33 3 -8 1 -14 -4 -14 -6 0 -10 5 -10 11 0 20 21 49 35 49 8 0 15 5 15 11 0 7
-10 9 -27 4 -22 -5 -25 -4 -15 8 9 11 8 14 -3 14 -8 0 -17 -3 -20 -5z m64 -73
c-16 -10 -23 -4 -14 10 3 6 11 8 17 5 6 -4 5 -9 -3 -15z m-302 -16 c-4 -3 -2
-12 4 -20 9 -10 8 -18 -6 -33 -9 -10 -22 -17 -28 -15 -7 3 -21 -2 -31 -10 -17
-13 -17 -17 -5 -31 12 -15 12 -17 -1 -12 -25 8 -23 36 4 69 14 17 26 35 26 40
0 6 4 8 9 4 5 -3 12 -1 16 5 3 5 9 10 12 10 4 0 3 -3 0 -7z m202 -5 c-1 -1 3
-13 10 -25 10 -19 9 -22 -4 -17 -8 3 -13 10 -10 14 3 5 1 11 -5 15 -6 4 -8 11
-4 16 3 6 8 8 11 5 2 -2 4 -6 2 -8z m-65 -37 c-3 -3 -10 2 -15 12 -6 9 -15 14
-21 11 -7 -5 -8 -2 -4 5 6 9 13 8 27 -5 11 -9 17 -20 13 -23z m31 30 c3 -5 1
-12 -5 -16 -5 -3 -10 1 -10 9 0 18 6 21 15 7z m75 -5 c0 -3 -4 -8 -10 -11 -5
-3 -10 -1 -10 4 0 6 5 11 10 11 6 0 10 -2 10 -4z m-125 -76 c3 -5 16 -10 27
-10 12 0 30 -8 41 -17 15 -14 21 -15 24 -5 4 10 8 10 19 1 11 -9 18 -9 26 -1
7 7 17 8 28 2 13 -7 22 -5 30 5 16 19 30 19 30 -1 0 -11 6 -14 21 -9 16 5 19
4 14 -5 -6 -10 -1 -12 19 -8 31 6 32 4 5 -20 -17 -17 -18 -20 -4 -26 9 -3 14
-2 11 2 -2 4 4 9 15 9 17 2 17 0 5 -13 -8 -8 -24 -14 -35 -14 -12 0 -21 -5
-21 -11 0 -8 -4 -8 -13 -1 -8 7 -18 7 -27 2 -11 -7 -23 -1 -42 17 -16 15 -28
22 -28 15 0 -6 9 -16 20 -22 24 -13 17 -30 -11 -30 -11 0 -18 4 -14 9 3 5 0
13 -6 16 -5 4 -8 13 -5 21 7 18 1 18 -18 -1 -8 -8 -29 -18 -46 -21 -27 -6 -30
-4 -24 12 4 11 5 17 3 14 -34 -40 -42 -52 -30 -45 10 5 12 4 7 -3 -5 -9 -13
-9 -27 -2 -10 6 -19 7 -19 3 0 -4 -5 -1 -11 7 -9 13 -10 13 -6 -1 4 -12 -3
-19 -26 -24 -36 -8 -86 -17 -104 -18 -7 0 -13 -4 -13 -9 0 -4 -4 -8 -9 -8 -4
0 -6 11 -4 25 3 13 8 23 12 22 3 -1 6 1 6 4 0 3 6 13 13 22 8 9 11 21 7 27 -3
5 2 10 13 10 13 0 19 6 18 18 0 10 5 16 13 14 7 -2 24 7 37 19 12 11 27 18 32
15 6 -3 12 1 16 9 6 17 22 20 31 5z m130 0 c3 -5 -1 -10 -10 -10 -9 0 -13 5
-10 10 3 6 8 10 10 10 2 0 7 -4 10 -10z m-357 -126 c-4 -11 -28 -14 -28 -4 0
8 22 20 28 14 2 -1 2 -6 0 -10z m826 -5 c-3 -5 -10 -7 -15 -3 -5 3 -7 10 -3
15 3 5 10 7 15 3 5 -3 7 -10 3 -15z m271 11 c3 -5 -1 -10 -10 -10 -9 0 -13 5
-10 10 3 6 8 10 10 10 2 0 7 -4 10 -10z m-42 -25 c-8 -22 -22 -18 -16 5 3 11
9 17 14 15 4 -3 6 -12 2 -20z m-1038 -14 c3 -5 2 -12 -3 -15 -5 -3 -9 1 -9 9
0 17 3 19 12 6z m205 -1 c0 -5 -6 -10 -14 -10 -8 0 -24 -11 -37 -24 -22 -23
-39 -26 -39 -5 0 5 6 9 13 9 8 0 22 9 33 19 21 21 44 27 44 11z m496 -5 c8 -3
12 -9 9 -15 -4 -7 -12 -7 -24 0 -12 6 -22 5 -31 -3 -12 -10 -12 -9 -2 4 6 9 9
19 5 23 -4 4 0 5 10 2 9 -4 24 -8 33 -11z m-706 -35 c0 -5 -2 -10 -4 -10 -3 0
-8 5 -11 10 -3 6 -1 10 4 10 6 0 11 -4 11 -10z m70 6 c0 -3 -4 -8 -10 -11 -5
-3 -10 -1 -10 4 0 6 5 11 10 11 6 0 10 -2 10 -4z m-113 -31 c0 -8 -4 -12 -9
-9 -5 3 -6 10 -3 15 9 13 12 11 12 -6z m2638 5 c3 -5 1 -10 -4 -10 -6 0 -11 5
-11 10 0 6 2 10 4 10 3 0 8 -4 11 -10z m-30 -10 c3 -5 -1 -10 -10 -10 -9 0
-13 5 -10 10 3 6 8 10 10 10 2 0 7 -4 10 -10z m-2569 -58 c-2 -9 -13 -19 -26
-20 -15 -3 -20 0 -15 8 4 6 13 9 20 6 9 -3 11 2 7 16 -3 14 -1 19 6 15 5 -4 9
-15 8 -25z m2504 -27 c10 -12 10 -15 -4 -15 -9 0 -16 7 -16 15 0 8 2 15 4 15
2 0 9 -7 16 -15z m-635 -24 c-3 -6 -11 -11 -16 -11 -5 0 -4 6 3 14 14 16 24
13 13 -3z m225 -12 c0 -14 -17 -10 -23 5 -4 10 -1 13 9 9 7 -3 14 -9 14 -14z
m620 -9 c23 -12 16 -40 -10 -40 -23 0 -32 13 -24 34 7 19 9 19 34 6z m-2936
-8 c3 -5 -1 -9 -9 -9 -8 0 -12 4 -9 9 3 4 7 8 9 8 2 0 6 -4 9 -8z m1269 -22
c3 -11 1 -18 -4 -14 -5 3 -9 12 -9 20 0 20 7 17 13 -6z m-83 -8 c0 -5 -13 -8
-29 -8 -17 0 -28 3 -25 8 3 4 16 8 30 8 13 0 24 -4 24 -8z m325 -3 c-3 -3 6
-4 18 -2 28 5 77 -39 77 -70 1 -22 1 -22 17 -2 12 15 14 16 10 3 -3 -9 -3 -19
1 -21 4 -2 2 -2 -5 -1 -7 2 -15 -1 -18 -6 -3 -6 -20 0 -36 12 -25 18 -48 24
-122 28 -55 3 -91 9 -89 15 2 6 11 8 20 7 9 -2 14 0 10 4 -13 12 42 39 83 39
21 1 36 -2 34 -6z m395 1 c0 -5 -4 -10 -10 -10 -5 0 -10 5 -10 10 0 6 5 10 10
10 6 0 10 -4 10 -10z m980 -10 c0 -5 -4 -10 -10 -10 -5 0 -10 5 -10 10 0 6 5
10 10 10 6 0 10 -4 10 -10z m-2605 -19 c3 -5 0 -13 -6 -17 -7 -4 -9 -3 -5 4 3
5 0 13 -6 15 -9 4 -10 6 -1 6 6 1 14 -3 18 -8z m75 5 c0 -3 -4 -8 -10 -11 -5
-3 -10 -1 -10 4 0 6 5 11 10 11 6 0 10 -2 10 -4z m1468 -25 c1 0 -4 -11 -13
-24 -8 -13 -14 -26 -13 -28 2 -2 -2 2 -9 9 -8 10 -13 10 -18 2 -5 -8 -12 -4
-22 10 -12 17 -13 24 -4 30 10 6 66 7 79 1z m-1758 -42 c0 -3 -12 -11 -27 -18
-16 -7 -25 -9 -21 -5 4 4 3 13 -3 20 -9 11 -6 16 12 23 22 8 38 -1 39 -20z
m566 -7 c-3 -19 -43 -19 -61 0 -7 7 -3 9 13 5 15 -3 25 0 29 9 7 19 22 8 19
-14z m71 22 c-3 -3 -12 -4 -19 -1 -8 3 -5 6 6 6 11 1 17 -2 13 -5z m-37 -14
c0 -5 -4 -10 -10 -10 -5 0 -10 5 -10 10 0 6 5 10 10 10 6 0 10 -4 10 -10z
m892 -47 c24 -22 23 -30 -6 -35 -16 -3 -27 0 -30 9 -3 8 -10 12 -16 8 -5 -3
-19 0 -32 7 -13 7 -25 14 -27 15 -1 1 0 7 4 13 10 16 84 4 107 -17z m100 15
c15 3 19 1 16 -9 -6 -18 -37 -24 -50 -11 -6 6 -7 16 -2 23 5 9 9 9 11 2 2 -6
13 -8 25 -5z m1251 -27 c22 -38 22 -60 -2 -58 -11 0 -17 6 -14 14 3 7 0 13 -7
13 -7 0 -10 7 -7 15 4 8 2 17 -3 20 -14 9 -12 25 3 25 7 0 20 -13 30 -29z
m-1136 -55 c4 -4 4 -7 -2 -5 -5 1 -18 -1 -28 -6 -14 -6 -15 -10 -5 -23 11 -13
9 -14 -17 -9 -20 3 -36 0 -49 -11 -11 -10 -16 -12 -13 -5 11 18 -8 24 -29 9
-13 -10 -26 -11 -42 -5 -13 5 -28 7 -33 3 -17 -10 -48 6 -42 22 5 13 8 12 26
-3 19 -17 20 -17 14 0 -5 14 -3 16 12 8 10 -6 21 -8 24 -4 4 3 13 0 22 -7 12
-10 15 -10 15 1 0 10 14 14 47 15 31 1 50 6 57 16 10 16 29 18 43 4z m628 -8
c5 4 5 1 1 -5 -10 -18 -33 -16 -33 2 0 10 4 12 12 5 7 -5 16 -6 20 -2z m-946
-20 c-11 -21 -11 -22 4 -10 9 8 22 10 29 6 9 -6 5 -10 -12 -14 -24 -7 -50 4
-50 20 0 5 8 11 18 13 9 3 18 5 20 6 1 0 -3 -9 -9 -21z m1496 12 c-7 -11 -45
-19 -45 -10 0 9 17 17 37 17 7 0 10 -4 8 -7z m-262 -21 c3 -13 12 -19 24 -17
12 2 17 -2 15 -14 -2 -12 2 -16 13 -12 9 4 15 1 15 -9 0 -8 7 -20 16 -27 25
-21 36 -48 22 -56 -7 -5 -8 -3 -3 6 6 10 1 12 -22 7 -22 -4 -36 0 -56 17 -15
13 -27 28 -27 34 0 6 -12 20 -26 31 -21 17 -24 23 -14 40 14 27 36 27 43 0z
m-246 5 c-3 -3 -12 -4 -19 -1 -8 3 -5 6 6 6 11 1 17 -2 13 -5z m37 -15 c3 0
11 -1 18 -3 7 -3 20 -6 28 -9 12 -4 12 -6 -2 -12 -10 -4 -26 -4 -35 1 -10 4
-23 6 -30 5 -7 -1 -9 7 -6 20 4 13 8 17 13 9 4 -6 10 -11 14 -11z m-2087 -4
c0 -8 -4 -12 -9 -9 -4 3 -8 0 -8 -5 0 -6 -7 -11 -15 -11 -22 0 -18 14 8 26 12
7 22 12 23 13 0 0 1 -6 1 -14z m2023 -5 c0 -5 -4 -10 -10 -10 -5 0 -10 5 -10
10 0 6 5 10 10 10 6 0 10 -4 10 -10z m-2096 -42 l-19 -23 21 18 c19 15 44 23
44 13 0 -3 -13 -17 -28 -33 -19 -18 -36 -27 -51 -25 -14 2 -21 0 -17 -7 7 -11
-26 -7 -46 5 -6 4 -8 3 -4 -4 3 -6 1 -14 -5 -18 -7 -4 -9 -3 -5 4 3 6 2 13 -4
17 -17 11 -11 20 20 32 21 8 28 16 24 27 -5 12 -2 15 9 10 9 -3 26 1 39 10 31
22 47 4 22 -26z m420 14 c3 -5 -1 -9 -9 -9 -8 0 -15 4 -15 9 0 4 4 8 9 8 6 0
12 -4 15 -8z m1021 -2 c3 -5 -1 -10 -10 -10 -9 0 -13 5 -10 10 3 6 8 10 10 10
2 0 7 -4 10 -10z m-1645 -42 c-23 -8 -33 -37 -20 -53 8 -10 8 -15 -1 -20 -12
-8 -31 14 -23 26 2 4 -5 5 -16 2 -11 -3 -20 0 -20 6 0 6 3 11 8 11 4 0 16 13
27 30 11 16 27 31 35 33 22 4 31 -27 10 -35z m590 32 c0 -5 -2 -10 -4 -10 -3
0 -8 5 -11 10 -3 6 -1 10 4 10 6 0 11 -4 11 -10z m1884 -11 c-3 -5 -10 -7 -15
-3 -5 3 -7 10 -3 15 3 5 10 7 15 3 5 -3 7 -10 3 -15z m316 17 c0 -3 -4 -8 -10
-11 -5 -3 -10 -1 -10 4 0 6 5 11 10 11 6 0 10 -2 10 -4z m-2056 -18 c-5 -8 -1
-9 12 -5 15 6 14 3 -5 -13 -16 -14 -27 -17 -36 -10 -6 5 -16 6 -20 2 -5 -4 -5
-1 -1 6 4 6 14 12 22 12 8 0 14 5 14 10 0 6 5 10 11 10 5 0 7 -5 3 -12z m1535
-4 c3 -3 -3 -12 -12 -21 -11 -11 -17 -13 -17 -5 0 7 -7 12 -15 12 -8 0 -15 4
-15 9 0 5 -8 12 -17 15 -10 2 2 2 27 -1 25 -2 47 -7 49 -9z m-949 -45 c14 0
42 3 63 6 22 4 37 3 37 -3 0 -6 -15 -10 -34 -10 -18 0 -43 -5 -54 -11 -16 -8
-24 -6 -45 13 -14 13 -23 27 -20 30 3 3 11 -1 17 -9 6 -8 22 -15 36 -16z m220
16 c3 -4 -2 -9 -10 -11 -8 -2 -25 -6 -37 -10 -18 -5 -23 -2 -23 11 0 14 3 15
15 5 13 -11 19 -8 17 11 -1 9 32 4 38 -6z m-82 -6 c-2 -6 -8 -10 -13 -10 -5 0
-11 4 -13 10 -2 6 4 11 13 11 9 0 15 -5 13 -11z m-1453 -8 c3 -5 1 -12 -5 -16
-5 -3 -10 1 -10 9 0 18 6 21 15 7z m545 1 c0 -13 -12 -22 -22 -16 -10 6 -1 24
13 24 5 0 9 -4 9 -8z m1551 -11 c17 -16 18 -19 4 -31 -21 -18 -61 15 -44 37
15 17 16 17 40 -6z m-1417 -17 c10 -26 7 -36 -10 -30 -8 3 -12 2 -9 -4 11 -18
-32 -11 -46 8 -13 16 -13 16 5 2 16 -12 18 -12 11 -1 -5 9 -2 19 10 28 24 17
32 17 39 -3z m-720 -45 c-3 -5 -10 -7 -15 -3 -5 3 -6 11 -2 17 4 8 1 7 -9 -1
-21 -17 -68 -25 -68 -12 0 5 6 9 13 8 6 -2 11 4 9 12 -3 12 -1 13 9 3 14 -14
30 -17 28 -5 -4 21 3 23 21 7 11 -10 17 -22 14 -26z m1196 33 c0 -13 -12 -22
-22 -16 -10 6 -1 24 13 24 5 0 9 -4 9 -8z m-1099 -9 c7 7 5 2 -4 -10 -25 -29
-57 -37 -57 -14 0 25 10 32 30 21 11 -6 22 -5 31 3z m2733 -25 c-3 -5 -12 -4
-20 3 -7 6 -11 15 -8 21 3 5 12 4 20 -3 7 -6 11 -15 8 -21z m-779 12 c-3 -5
-12 -10 -18 -10 -7 0 -6 4 3 10 19 12 23 12 15 0z m-1460 -19 c3 -5 1 -12 -5
-16 -5 -3 -10 1 -10 9 0 18 6 21 15 7z m1085 -12 c0 -5 -4 -9 -10 -9 -5 0 -10
7 -10 16 0 8 5 12 10 9 6 -3 10 -10 10 -16z m-1110 -7 c0 -13 -12 -22 -22 -16
-10 6 -1 24 13 24 5 0 9 -4 9 -8z m470 -3 c3 -1 21 -2 40 -3 51 -1 53 -21 3
-23 -24 -1 -43 3 -43 8 0 6 -5 7 -11 4 -14 -9 -59 3 -59 15 0 8 51 7 70 -1z
m390 1 c0 -5 -5 -10 -11 -10 -5 0 -7 5 -4 10 3 6 8 10 11 10 2 0 4 -4 4 -10z
m680 -4 c0 -8 5 -16 12 -18 6 -2 8 -9 4 -16 -5 -8 -13 -5 -27 9 -11 11 -17 24
-14 29 9 15 25 12 25 -4z m-1950 0 c0 -2 -7 -7 -16 -10 -8 -3 -12 -2 -9 4 6
10 25 14 25 6z m2480 -6 c0 -5 -4 -10 -10 -10 -5 0 -10 5 -10 10 0 6 5 10 10
10 6 0 10 -4 10 -10z m110 -26 c0 -14 -4 -23 -10 -19 -5 3 -10 -1 -10 -9 0 -9
-4 -16 -10 -16 -5 0 -10 4 -10 9 0 5 -3 17 -6 25 -5 12 -2 15 10 10 11 -4 16
-1 16 10 0 9 5 16 10 16 6 0 10 -12 10 -26z m-895 6 c-3 -5 -13 -10 -21 -10
-8 0 -12 5 -9 10 3 6 13 10 21 10 8 0 12 -4 9 -10z m356 -10 c13 -10 20 -19
16 -20 -5 0 1 -12 12 -27 12 -14 19 -28 16 -31 -7 -8 -45 29 -45 44 0 21 -35
35 -49 21 -10 -9 -12 -9 -9 3 7 33 28 37 59 10z m-651 -9 c0 -5 -7 -12 -16
-15 -24 -9 -28 -7 -14 9 14 17 30 20 30 6z m-143 -7 c-3 -3 -12 -4 -19 -1 -8
3 -5 6 6 6 11 1 17 -2 13 -5z m677 -2 c2 -4 -4 -8 -14 -8 -10 0 -16 4 -14 8 3
4 9 8 14 8 5 0 11 -4 14 -8z m-1340 -19 c37 -19 42 -36 11 -42 -13 -2 -16 1
-12 13 4 9 2 16 -2 16 -5 0 -12 -6 -14 -12 -3 -8 -6 -6 -6 5 -1 23 -37 22 -58
-3 -18 -21 -80 -46 -90 -36 -3 3 6 10 21 16 15 5 43 21 64 35 44 30 42 30 86
8z m196 7 c24 -8 24 -8 -7 -9 -17 -1 -35 4 -38 9 -7 11 9 11 45 0z m110 0 c11
-7 7 -10 -18 -10 -20 0 -31 4 -27 10 8 13 26 13 45 0z m424 -5 c25 -19 9 -19
-24 0 -14 8 -19 14 -10 14 8 0 24 -6 34 -14z m-1494 -9 c0 -23 -16 -27 -17 -5
-1 10 2 19 8 19 5 0 9 -6 9 -14z m1765 4 c3 -5 2 -10 -4 -10 -5 0 -13 5 -16
10 -3 6 -2 10 4 10 5 0 13 -4 16 -10z m-459 -19 c8 -10 13 -11 18 -2 12 19 27
2 16 -19 -8 -16 -15 -18 -35 -10 -18 7 -25 6 -25 -3 0 -9 -2 -9 -9 1 -4 7 -14
12 -22 10 -8 -2 -13 2 -12 9 2 8 -6 9 -26 3 -27 -7 -51 2 -51 20 0 13 135 5
146 -9z m278 10 c3 -5 -1 -11 -9 -14 -9 -4 -12 -1 -8 9 6 16 10 17 17 5z
m-749 -20 c-1 -8 -7 -16 -14 -17 -7 -2 -7 0 -1 3 7 3 8 9 1 17 -8 9 -7 13 3
13 8 0 13 -7 11 -16z m76 2 c16 4 18 3 8 -9 -20 -24 -80 -10 -64 15 5 9 10 9
21 0 8 -6 23 -9 35 -6z m520 1 c9 -11 22 -14 45 -10 23 5 33 2 38 -9 3 -9 2
-13 -4 -10 -5 3 -18 1 -29 -5 -11 -5 -22 -6 -25 -2 -2 4 -27 7 -55 6 -39 -2
-51 1 -51 12 0 8 5 15 10 15 6 1 14 2 19 3 5 0 13 4 17 9 11 11 20 9 35 -9z
m-271 -4 c0 -5 -7 -10 -16 -10 -8 0 -12 5 -9 10 3 6 10 10 16 10 5 0 9 -4 9
-10z m390 6 c0 -3 -4 -8 -10 -11 -5 -3 -10 -1 -10 4 0 6 5 11 10 11 6 0 10 -2
10 -4z m110 -6 c0 -5 -2 -10 -4 -10 -3 0 -8 5 -11 10 -3 6 -1 10 4 10 6 0 11
-4 11 -10z m-532 -31 c-14 -9 -91 1 -103 13 -7 6 -1 7 15 3 14 -3 36 -2 50 3
25 9 58 -7 38 -19z m-916 -24 c-5 -43 -37 -67 -47 -35 -7 21 30 84 44 76 4 -3
5 -21 3 -41z m798 35 c0 -5 -5 -10 -11 -10 -5 0 -7 5 -4 10 3 6 8 10 11 10 2
0 4 -4 4 -10z m1310 -26 c0 -8 -19 -13 -24 -6 -3 5 1 9 9 9 8 0 15 -2 15 -3z
m-1786 -55 c-19 -28 -32 -55 -29 -59 3 -5 1 -11 -5 -15 -5 -3 -11 1 -11 9 -1
9 -2 20 -3 25 -1 10 65 90 76 90 4 1 -9 -22 -28 -50z m1886 -37 c0 -10 -4 -10
-16 2 -8 9 -12 21 -8 27 7 13 24 -7 24 -29z m262 31 c-6 -2 -10 -9 -6 -14 3
-5 0 -9 -5 -9 -12 0 -14 13 -4 23 3 4 11 7 17 6 6 0 5 -3 -2 -6z m-157 -13 c3
-5 1 -10 -4 -10 -6 0 -11 5 -11 10 0 6 2 10 4 10 3 0 8 -4 11 -10z m-2366 -22
c-5 -10 -7 -18 -4 -18 4 0 3 -5 0 -10 -4 -6 -11 -8 -16 -4 -6 4 -6 11 1 19 7
8 9 18 6 23 -3 5 1 9 9 9 10 0 11 -5 4 -19z m2451 12 c8 -5 12 -10 10 -12 -3
-2 -15 -11 -27 -22 -14 -11 -29 -15 -42 -11 -30 9 -26 32 7 43 35 13 34 13 52
2z m-2863 -42 c-3 -8 -6 -5 -6 6 -1 11 2 17 5 13 3 -3 4 -12 1 -19z m2291 1
c12 -19 11 -19 -8 -9 -11 6 -20 15 -20 20 0 17 15 11 28 -11z m885 -8 c-23
-22 -53 -31 -50 -16 1 6 7 10 12 10 6 1 19 6 30 13 29 17 32 15 8 -7z m-648
-64 c17 5 18 4 6 -11 -7 -9 -16 -16 -20 -16 -7 0 -51 75 -51 87 1 4 11 -9 23
-29 17 -29 26 -36 42 -31z m-2105 43 c0 -5 -5 -10 -11 -10 -5 0 -7 5 -4 10 3
6 8 10 11 10 2 0 4 -4 4 -10z m120 -11 c0 -11 -4 -18 -10 -14 -5 3 -7 12 -3
20 7 21 13 19 13 -6z m195 1 c-10 -11 -22 -20 -27 -20 -10 0 24 38 36 39 5 1
1 -8 -9 -19z m1994 -37 c9 -23 24 -50 34 -61 12 -13 15 -22 8 -27 -6 -3 -16 4
-21 17 -6 13 -22 41 -35 63 -27 44 -31 59 -14 53 7 -2 19 -22 28 -45z m-159
17 c0 -5 -2 -10 -4 -10 -3 0 -8 5 -11 10 -3 6 -1 10 4 10 6 0 11 -4 11 -10z
m40 6 c0 -2 -7 -7 -16 -10 -8 -3 -12 -2 -9 4 6 10 25 14 25 6z m-1533 -26 c-1
-12 -5 -16 -10 -11 -5 5 -6 14 -3 20 11 16 15 13 13 -9z m-701 -17 c-10 -10
-19 5 -10 18 6 11 8 11 12 0 2 -7 1 -15 -2 -18z m2578 16 c14 12 16 10 14 -11
-2 -18 -7 -24 -23 -22 -11 1 -19 7 -17 13 1 6 -3 11 -9 11 -5 0 -7 5 -3 11 4
8 9 7 14 -2 7 -10 11 -10 24 0z m-2649 -19 c-3 -5 -12 -10 -18 -10 -7 0 -6 4
3 10 19 12 23 12 15 0z m2595 2 c0 -16 -66 -69 -94 -76 -26 -6 -28 -5 -17 8 8
9 20 16 27 16 8 0 26 14 41 30 26 29 43 38 43 22z m-579 -35 c-13 -13 -26 -3
-16 12 3 6 11 8 17 5 6 -4 6 -10 -1 -17z m483 -8 c-8 -14 -24 -10 -24 6 0 9 6
12 15 9 8 -4 12 -10 9 -15z m-2297 -44 c-5 -14 -49 -13 -54 3 -3 7 1 10 11 6
12 -5 16 0 16 17 1 23 1 24 15 4 9 -10 14 -24 12 -30z m578 35 c3 -5 2 -10 -4
-10 -5 0 -13 5 -16 10 -3 6 -2 10 4 10 5 0 13 -4 16 -10z m1915 -17 c0 -5 -5
-15 -10 -23 -8 -12 -10 -11 -10 8 0 12 5 22 10 22 6 0 10 -3 10 -7z m-935 -51
c-8 -8 -25 17 -25 38 0 9 6 6 16 -8 9 -13 13 -26 9 -30z m-965 28 c0 -5 -2
-10 -4 -10 -3 0 -8 5 -11 10 -3 6 -1 10 4 10 6 0 11 -4 11 -10z m1540 -11 c0
-6 -4 -7 -10 -4 -5 3 -10 11 -10 16 0 6 5 7 10 4 6 -3 10 -11 10 -16z m360
-49 c0 -5 -2 -10 -4 -10 -3 0 -8 5 -11 10 -3 6 -1 10 4 10 6 0 11 -4 11 -10z
m-373 -15 c0 -8 -4 -12 -9 -9 -5 3 -6 10 -3 15 9 13 12 11 12 -6z m-1909 -62
c2 -31 -10 -18 -23 27 -7 21 -6 23 6 13 8 -6 15 -24 17 -40z m1856 -7 c-4 -11
-14 -26 -22 -32 -14 -10 -12 -16 16 -44 25 -24 30 -35 22 -48 -9 -16 -9 -15
-10 1 0 10 -5 15 -10 12 -6 -4 -7 -11 -4 -17 4 -7 2 -8 -5 -4 -6 4 -9 12 -6
17 4 5 1 9 -4 9 -6 0 -11 8 -11 18 0 10 -5 23 -12 30 -9 9 -7 16 10 32 24 22
29 40 11 40 -5 0 -8 4 -4 10 11 18 36 -1 29 -24z m426 -17 c0 -11 -4 -17 -10
-14 -5 3 -10 13 -10 21 0 8 5 14 10 14 6 0 10 -9 10 -21z m-60 -14 c0 -8 -4
-15 -9 -15 -13 0 -22 16 -14 24 11 11 23 6 23 -9z m-2161 -88 c1 -4 -7 -2 -17
4 -13 8 -19 24 -20 48 l0 36 18 -40 c10 -22 19 -43 19 -48z m1606 73 c3 -5 1
-10 -4 -10 -6 0 -11 5 -11 10 0 6 2 10 4 10 3 0 8 -4 11 -10z m-10 -30 c3 -5
1 -10 -4 -10 -6 0 -11 5 -11 10 0 6 2 10 4 10 3 0 8 -4 11 -10z m113 -3 c8 -5
19 -4 28 4 12 10 13 9 8 -5 -6 -15 -11 -18 -44 -20 -9 -1 -14 -9 -12 -21 2
-17 1 -18 -8 -5 -9 11 -13 12 -17 3 -2 -7 -12 -13 -21 -13 -13 0 -14 2 -4 9
11 7 11 9 -1 14 -8 3 -20 0 -26 -6 -8 -8 -11 -8 -11 0 0 15 25 34 35 25 5 -4
6 0 3 8 -4 11 2 15 26 15 17 0 37 -4 44 -8z m-1926 -55 c-4 -11 -6 -11 -13 0
-5 7 -9 22 -9 32 0 19 0 19 14 1 8 -11 11 -25 8 -33z m2454 21 c-10 -11 -37
-12 -30 -2 3 5 12 9 21 9 9 0 13 -3 9 -7z m-2189 -17 c-3 -8 2 -16 15 -19 11
-3 18 -11 16 -18 -8 -23 -24 -20 -36 6 -15 32 -15 45 -1 45 6 0 9 -6 6 -14z
m303 4 c-8 -5 -22 -9 -30 -9 -10 0 -8 3 5 9 27 12 43 12 25 0z m150 -8 c0 -9
-6 -12 -17 -8 -9 4 -20 1 -24 -5 -8 -13 -39 -5 -39 10 0 9 25 16 63 16 9 1 17
-6 17 -13z m1124 -32 c-11 -11 -64 -24 -64 -16 0 3 8 15 17 25 13 16 21 18 36
9 10 -5 15 -14 11 -18z m-1832 -2 c-7 -7 -12 -8 -12 -2 0 14 12 26 19 19 2 -3
-1 -11 -7 -17z m1901 7 c4 -8 3 -16 -1 -19 -4 -3 -9 4 -9 15 -2 23 3 25 10 4z
m77 6 c0 -12 -28 -22 -34 -12 -3 5 -3 11 1 15 9 9 33 7 33 -3z m-1898 -56 c5
-25 5 -25 -11 -8 -9 10 -20 26 -24 36 -5 15 -3 16 12 8 10 -6 21 -22 23 -36z
m-52 31 c0 -3 -4 -8 -10 -11 -5 -3 -10 -1 -10 4 0 6 5 11 10 11 6 0 10 -2 10
-4z m2133 -27 c-6 -6 -19 -9 -29 -6 -17 3 -16 5 6 14 28 12 39 8 23 -8z
m-2227 -18 c14 -11 21 -21 17 -24 -4 -2 -19 6 -33 19 -30 29 -18 32 16 5z
m-72 -47 c3 -8 2 -12 -4 -9 -6 3 -10 10 -10 16 0 14 7 11 14 -7z m2236 6 c0
-5 -5 -10 -11 -10 -5 0 -7 5 -4 10 3 6 8 10 11 10 2 0 4 -4 4 -10z m-35 -20
c-3 -5 -13 -10 -21 -10 -8 0 -12 5 -9 10 3 6 13 10 21 10 8 0 12 -4 9 -10z
m-48 -16 c-3 -3 -12 -4 -19 -1 -8 3 -5 6 6 6 11 1 17 -2 13 -5z m-1870 -10
c-3 -3 -12 -4 -19 -1 -8 3 -5 6 6 6 11 1 17 -2 13 -5z m-37 -14 c0 -5 -2 -10
-4 -10 -3 0 -8 5 -11 10 -3 6 -1 10 4 10 6 0 11 -4 11 -10z m1685 -9 c-3 -5
-1 -12 5 -16 5 -3 10 -12 10 -18 0 -7 -7 -3 -15 7 -13 17 -12 36 1 36 3 0 3
-4 -1 -9z m-205 -36 c14 -19 14 -19 -2 -6 -10 7 -18 18 -18 24 0 6 1 8 3 6 1
-2 9 -13 17 -24z m-1126 4 c10 16 36 1 36 -20 0 -10 -9 -23 -20 -29 -20 -11
-22 -9 -24 20 -1 8 -7 16 -14 16 -22 2 -23 4 -17 14 5 8 11 8 20 0 9 -7 15 -8
19 -1z m1511 -13 c-22 -18 -33 -21 -43 -14 -16 13 -14 16 22 22 16 3 31 8 34
11 3 3 8 5 11 5 3 0 -7 -11 -24 -24z m-2065 4 c0 -5 -7 -10 -16 -10 -8 0 -12
5 -9 10 3 6 10 10 16 10 5 0 9 -4 9 -10z m314 -2 c-5 -7 -3 -8 7 -2 22 14 42
14 30 1 -10 -13 -11 -17 -11 -48 0 -19 -2 -18 -29 8 -26 25 -28 29 -13 41 20
15 25 15 16 0z m1926 3 c0 -5 -7 -14 -15 -21 -8 -7 -15 -10 -15 -7 0 3 -3 12
-6 21 -4 12 0 16 15 16 12 0 21 -4 21 -9z m-580 -22 c0 -5 -7 -9 -15 -9 -9 0
-12 6 -9 15 6 15 24 11 24 -6z m304 -47 c7 -11 -11 -38 -20 -29 -4 4 -12 3
-18 -3 -22 -17 -106 -49 -106 -40 0 6 7 10 15 10 8 0 15 5 15 11 0 5 4 8 9 4
5 -3 12 -1 16 5 4 6 10 8 14 6 4 -3 18 6 32 19 26 26 35 29 43 17z m-1254 -22
c0 -5 -2 -10 -4 -10 -3 0 -8 5 -11 10 -3 6 -1 10 4 10 6 0 11 -4 11 -10z
m1323 -21 c-6 -6 -9 -19 -5 -28 5 -14 4 -14 -11 1 -15 14 -16 21 -5 37 8 13
16 17 22 11 7 -7 6 -14 -1 -21z m-1488 1 c-3 -5 -13 -10 -21 -10 -8 0 -14 5
-14 10 0 6 9 10 21 10 11 0 17 -4 14 -10z m1119 -2 c-4 -6 1 -17 11 -24 24
-18 13 -29 -13 -15 -20 11 -20 51 0 51 5 0 6 -5 2 -12z m-1208 -13 c-10 -8
-23 -12 -28 -9 -14 9 -2 19 24 21 22 2 22 1 4 -12z m1464 -25 c0 -5 -2 -10 -4
-10 -3 0 -8 5 -11 10 -3 6 -1 10 4 10 6 0 11 -4 11 -10z m-1522 -36 c-4 -3
-16 0 -28 6 -18 10 -20 14 -9 21 15 9 48 -15 37 -27z m1492 30 c0 -7 -71 -38
-93 -40 -21 -2 -32 12 -12 14 8 1 22 3 30 4 8 1 15 5 15 9 0 4 8 10 18 12 26
7 42 8 42 1z m-1095 -64 c3 -5 2 -10 -4 -10 -5 0 -13 5 -16 10 -3 6 -2 10 4
10 5 0 13 -4 16 -10z m878 -30 c22 -26 21 -30 -3 -30 -11 0 -20 7 -20 16 0 8
-4 12 -10 9 -5 -3 -10 1 -10 9 0 22 22 20 43 -4z m57 4 c0 -8 -19 -13 -24 -6
-3 5 1 9 9 9 8 0 15 -2 15 -3z m55 -4 c3 -5 -1 -10 -9 -10 -9 0 -16 5 -16 10
0 6 4 10 9 10 6 0 13 -4 16 -10z m-166 -23 c8 -10 7 -14 -4 -14 -8 0 -15 6
-15 14 0 7 2 13 4 13 2 0 9 -6 15 -13z"/>
<path d="M786 2744 c-17 -12 -17 -14 -4 -14 9 0 20 5 23 11 11 17 2 18 -19 3z"/>
<path d="M2895 1700 c-3 -5 -1 -10 4 -10 6 0 11 5 11 10 0 6 -2 10 -4 10 -3 0
-8 -4 -11 -10z"/>
<path d="M2774 2989 c-3 -6 -1 -16 4 -21 8 -8 11 -5 9 11 -1 24 -3 25 -13 10z"/>
<path d="M900 2980 c0 -5 10 -15 23 -21 22 -12 22 -12 3 10 -21 23 -26 26 -26
11z"/>
<path d="M1230 2971 c0 -26 15 -35 17 -11 1 11 -2 22 -8 25 -5 4 -9 -3 -9 -14z"/>
<path d="M1465 2898 c-4 -11 -18 -18 -34 -19 -15 0 -20 -3 -11 -6 27 -10 49
-35 43 -49 -3 -8 0 -14 7 -14 7 0 10 8 7 19 -2 10 -1 24 3 32 4 8 4 23 0 34
-7 18 -8 19 -15 3z"/>
<path d="M1760 2871 c0 -5 5 -13 10 -16 6 -3 10 -2 10 4 0 5 -4 13 -10 16 -5
3 -10 2 -10 -4z"/>
<path d="M2780 2866 c0 -11 -14 -14 -61 -12 -33 2 -55 0 -48 -4 6 -4 8 -13 5
-19 -5 -8 -12 -7 -22 4 -18 17 -50 20 -59 5 -4 -6 -11 -8 -16 -4 -6 3 -9 -2
-7 -11 4 -22 -58 -57 -88 -49 -12 3 -31 1 -42 -5 -13 -7 -23 -7 -32 2 -10 9
-11 9 -6 0 10 -17 0 -16 -30 3 -13 9 -27 14 -31 10 -3 -3 -12 -1 -19 4 -15 13
-32 10 -56 -10 -13 -10 -14 -16 -5 -22 12 -8 10 -8 -55 -12 -15 0 -32 -6 -39
-13 -15 -15 43 -47 91 -49 19 -1 37 -3 40 -4 3 -1 10 -1 15 0 6 1 21 4 35 6
14 3 35 9 48 14 12 6 32 14 45 19 94 40 125 56 144 74 20 18 23 18 29 4 3 -9
10 -15 14 -12 5 3 13 -3 19 -12 6 -10 11 -14 11 -9 0 5 9 -3 21 -18 11 -14 25
-23 31 -20 6 4 17 -1 25 -11 7 -11 13 -16 13 -13 0 4 14 3 30 -2 27 -8 32 -6
40 16 9 23 40 34 40 14 0 -5 7 -10 15 -10 8 0 15 -4 15 -10 0 -5 7 -7 15 -4 8
4 15 1 15 -6 0 -7 7 -10 15 -7 8 4 17 3 19 -2 6 -9 42 -8 52 1 9 10 35 -3 28
-13 -3 -5 0 -9 6 -9 7 0 10 7 7 15 -9 22 10 28 25 7 7 -10 22 -21 32 -25 16
-6 17 -5 6 8 -7 8 -28 24 -46 36 -19 11 -31 25 -28 30 4 6 11 6 19 -1 8 -7 18
-9 24 -6 5 4 18 -4 28 -16 10 -13 25 -23 33 -23 8 0 14 -6 12 -13 -1 -8 2 -11
9 -6 12 7 -32 54 -52 54 -8 0 -9 4 0 13 8 11 7 14 -7 14 -9 0 -20 -5 -24 -11
-6 -8 -11 -7 -17 3 -11 17 -55 -4 -44 -22 4 -7 0 -7 -10 2 -19 15 -23 26 -5
15 7 -4 8 -3 4 5 -4 6 -12 9 -17 5 -13 -8 -39 27 -31 41 3 5 -2 4 -12 -4 -9
-8 -16 -10 -15 -5 3 19 -3 49 -8 37 -7 -20 -20 -15 -27 10 -5 18 -8 20 -16 7
-13 -21 -13 -23 10 -48 25 -27 14 -28 -20 -3 -18 14 -29 17 -42 10 -12 -6 -25
-6 -39 2 -12 6 -29 9 -39 6 -30 -8 -12 20 18 29 15 4 30 7 35 6 4 -1 12 -3 18
-4 13 -3 21 30 9 37 -5 3 -11 1 -15 -5 -3 -5 -11 -10 -16 -10 -6 0 -7 5 -4 10
3 6 1 10 -4 10 -6 0 -11 -6 -11 -14z m-137 -41 c4 -8 3 -16 -1 -19 -4 -3 -9 4
-9 15 -2 23 3 25 10 4z m317 -65 c0 -5 -7 -7 -15 -4 -8 4 -15 8 -15 10 0 2 7
4 15 4 8 0 15 -4 15 -10z"/>
<path d="M437 2823 c-12 -12 -7 -22 8 -17 8 4 15 10 15 15 0 11 -14 12 -23 2z"/>
<path d="M3010 2805 c7 -8 17 -15 22 -15 5 0 3 7 -6 15 -8 8 -18 15 -22 15 -3
0 -1 -7 6 -15z"/>
<path d="M1490 2800 c-12 -7 -10 -9 7 -7 12 0 19 5 17 9 -6 10 -6 10 -24 -2z"/>
<path d="M3056 2785 c4 -8 11 -15 16 -15 6 0 5 6 -2 15 -7 8 -14 15 -16 15 -2
0 -1 -7 2 -15z"/>
<path d="M430 2780 c0 -5 5 -10 11 -10 5 0 7 5 4 10 -3 6 -8 10 -11 10 -2 0
-4 -4 -4 -10z"/>
<path d="M1140 2745 c-7 -9 -10 -18 -7 -22 4 -3 9 2 13 11 3 9 10 13 15 10 5
-3 9 0 9 5 0 16 -16 13 -30 -4z"/>
<path d="M1884 2717 c17 -27 17 -28 -3 -15 -27 16 -40 2 -15 -17 21 -15 52
-11 72 11 7 9 8 10 0 4 -8 -7 -21 -2 -42 18 l-30 27 18 -28z"/>
<path d="M1697 2686 c-14 -11 -13 -14 16 -28 30 -15 33 -14 34 1 2 25 -29 42
-50 27z"/>
<path d="M2090 2680 c0 -5 7 -10 16 -10 8 0 12 5 9 10 -3 6 -10 10 -16 10 -5
0 -9 -4 -9 -10z"/>
<path d="M3184 2679 c-3 -6 0 -18 9 -26 13 -13 14 -12 10 11 -6 29 -9 31 -19
15z"/>
<path d="M2660 2652 c-46 -15 -63 -29 -54 -44 6 -10 61 -1 83 13 13 8 11 9 -6
4 -13 -4 -23 -2 -23 3 0 9 37 25 53 23 4 -1 7 4 7 9 0 12 -3 12 -60 -8z"/>
<path d="M2070 2645 c0 -8 -4 -15 -9 -15 -5 0 -14 -14 -20 -31 -6 -17 -15 -28
-21 -24 -5 3 -10 2 -10 -3 0 -5 -11 -12 -25 -14 -21 -4 -23 -3 -14 13 7 14 6
17 -5 13 -8 -3 -17 -1 -21 5 -3 6 -1 11 5 11 20 0 4 25 -16 25 -10 1 -18 6
-17 12 2 7 -6 11 -17 10 -10 -1 -16 -6 -12 -12 4 -5 7 -17 7 -25 0 -8 8 -14
17 -14 10 1 16 -1 14 -5 -3 -4 -1 -13 4 -21 5 -9 5 -19 -2 -27 -8 -10 -7 -13
4 -13 8 0 23 -9 32 -19 17 -19 52 -18 40 0 -3 5 -10 6 -16 3 -7 -4 -8 -2 -4 4
5 8 13 9 25 3 12 -7 24 -6 38 4 11 8 23 12 26 9 3 -3 8 0 12 5 3 6 -1 14 -10
17 -12 5 -13 9 -4 20 15 18 21 84 9 84 -6 0 -10 -7 -10 -15z m1 -48 c-1 -12
-15 -9 -19 4 -3 6 1 10 8 8 6 -3 11 -8 11 -12z m-27 -46 c3 -5 -1 -14 -8 -20
-12 -10 -13 -8 -9 8 6 23 9 25 17 12z"/>
<path d="M1672 2638 c-15 -15 -16 -28 -2 -28 6 0 9 6 8 13 -2 6 5 11 14 9 9
-1 19 2 23 8 9 14 -28 13 -43 -2z"/>
<path d="M370 2629 c0 -5 -4 -7 -10 -4 -5 3 -10 -1 -10 -9 0 -19 11 -21 28 -4
15 15 16 28 2 28 -5 0 -10 -5 -10 -11z"/>
<path d="M2285 2630 c-3 -5 -1 -10 4 -10 6 0 11 5 11 10 0 6 -2 10 -4 10 -3 0
-8 -4 -11 -10z"/>
<path d="M960 2611 c0 -5 5 -13 10 -16 6 -3 10 -2 10 4 0 5 -4 13 -10 16 -5 3
-10 2 -10 -4z"/>
<path d="M3226 2601 c-4 -7 -5 -15 -2 -18 9 -9 19 4 14 18 -4 11 -6 11 -12 0z"/>
<path d="M2807 2586 c-17 -13 -16 -14 2 -19 13 -3 21 1 24 14 6 22 -1 24 -26
5z"/>
<path d="M850 2586 c0 -2 7 -9 15 -16 12 -10 15 -10 15 4 0 9 -7 16 -15 16 -8
0 -15 -2 -15 -4z"/>
<path d="M2850 2580 c-8 -5 -12 -12 -9 -15 4 -3 12 1 19 10 14 17 11 19 -10 5z"/>
<path d="M1900 2570 c0 -5 5 -10 10 -10 6 0 10 5 10 10 0 6 -4 10 -10 10 -5 0
-10 -4 -10 -10z"/>
<path d="M833 2546 c0 -8 6 -12 14 -9 7 3 10 9 7 14 -8 14 -21 11 -21 -5z"/>
<path d="M1938 2496 c-3 -15 -2 -29 2 -31 11 -7 19 30 10 45 -5 7 -9 2 -12
-14z"/>
<path d="M1735 2500 c3 -5 8 -10 11 -10 2 0 4 5 4 10 0 6 -5 10 -11 10 -5 0
-7 -4 -4 -10z"/>
<path d="M1900 2439 c0 -5 5 -7 10 -4 6 3 10 8 10 11 0 2 -4 4 -10 4 -5 0 -10
-5 -10 -11z"/>
<path d="M2197 1244 c-8 -9 15 -30 41 -38 14 -5 30 -1 46 11 29 21 34 38 9 26
-20 -10 -65 -9 -80 0 -6 4 -13 4 -16 1z"/>
<path d="M2103 1225 c-10 -8 -25 -15 -34 -15 -9 0 -22 -7 -29 -15 -11 -13 -6
-15 31 -15 35 1 48 6 61 24 14 20 15 25 4 29 -8 3 -22 -1 -33 -8z"/>
<path d="M1940 1210 c0 -5 5 -10 10 -10 6 0 10 5 10 10 0 6 -4 10 -10 10 -5 0
-10 -4 -10 -10z"/>
<path d="M1865 1199 c7 -11 35 -12 35 -1 0 4 -9 8 -20 9 -11 1 -18 -2 -15 -8z"/>
<path d="M1680 1175 c-10 -12 -9 -15 4 -15 10 0 15 4 12 9 -4 5 0 12 6 14 8 4
9 6 2 6 -6 1 -17 -6 -24 -14z"/>
<path d="M1600 1156 c0 -18 45 -23 55 -6 3 6 0 10 -9 10 -8 0 -21 3 -30 6 -11
4 -16 1 -16 -10z"/>
<path d="M2137 1164 c-10 -11 4 -33 18 -28 22 9 27 34 6 34 -10 0 -20 -3 -24
-6z"/>
<path d="M2070 1153 c0 -13 29 -38 35 -31 3 3 -4 13 -15 23 -11 10 -20 13 -20
8z"/>
<path d="M1217 1128 c17 -16 35 -22 82 -23 34 -1 61 0 61 2 0 7 -55 26 -67 24
-7 -1 -13 3 -13 9 0 5 -19 10 -42 10 l-42 0 21 -22z"/>
<path d="M1897 1121 c-30 -17 -81 -97 -67 -106 5 -3 12 4 15 16 8 24 17 18 21
-14 7 -56 27 -147 33 -147 3 0 6 -19 5 -43 0 -49 5 -69 16 -62 5 3 5 18 1 33
-4 15 -5 52 -2 82 l6 54 14 -29 c8 -17 15 -36 17 -43 7 -36 12 -17 13 47 0 55
-3 71 -14 71 -7 0 -17 5 -21 11 -4 8 0 9 15 4 12 -4 21 -2 21 4 0 6 -4 11 -9
11 -4 0 -11 27 -15 60 -4 33 -10 61 -14 63 -4 3 -20 -3 -35 -12z"/>
<path d="M1995 1110 c-8 -13 4 -37 20 -37 19 0 19 33 0 40 -8 4 -17 2 -20 -3z"/>
<path d="M1577 1093 c6 -15 29 -18 37 -4 3 5 -5 11 -18 13 -17 4 -23 1 -19 -9z"/>
<path d="M1302 1073 c-9 -3 -4 -10 14 -19 19 -10 31 -11 38 -4 19 19 -20 36
-52 23z"/>
<path d="M1460 1040 c0 -5 9 -12 20 -15 11 -3 20 -11 20 -16 0 -5 5 -9 10 -9
20 0 9 19 -20 34 -16 8 -30 11 -30 6z"/>
<path d="M2127 1023 c-12 -11 -8 -23 8 -23 8 0 15 7 15 15 0 16 -12 20 -23 8z"/>
<path d="M1440 993 c0 -7 5 -24 11 -40 9 -25 12 -26 20 -11 7 13 5 23 -11 40
-11 12 -20 17 -20 11z"/>
<path d="M2072 975 c-6 -14 -7 -25 -2 -25 9 0 25 39 18 46 -3 2 -10 -7 -16
-21z"/>
<path d="M2110 970 c0 -5 5 -10 10 -10 6 0 10 5 10 10 0 6 -4 10 -10 10 -5 0
-10 -4 -10 -10z"/>
<path d="M1805 954 c-4 -10 -13 -34 -21 -51 -12 -28 -12 -33 0 -33 9 0 18 18
24 47 11 48 8 73 -3 37z"/>
<path d="M1830 955 c0 -8 4 -15 10 -15 5 0 7 7 4 15 -4 8 -8 15 -10 15 -2 0
-4 -7 -4 -15z"/>
<path d="M2105 940 c3 -5 8 -10 11 -10 2 0 4 5 4 10 0 6 -5 10 -11 10 -5 0 -7
-4 -4 -10z"/>
<path d="M1650 890 c0 -5 5 -10 10 -10 6 0 10 5 10 10 0 6 -4 10 -10 10 -5 0
-10 -4 -10 -10z"/>
<path d="M1620 866 c0 -9 -7 -16 -15 -16 -23 0 -37 -67 -23 -115 6 -22 17 -45
24 -51 8 -6 10 -15 6 -19 -4 -5 -1 -5 6 -1 10 6 10 11 2 21 -8 10 -7 14 7 18
17 4 17 5 1 6 -14 1 -18 10 -18 37 0 29 3 34 13 25 16 -13 27 -5 27 21 0 10 5
18 11 18 18 0 5 42 -18 58 -21 13 -23 13 -23 -2z m17 -51 c-4 -8 -13 -15 -22
-15 -21 0 -19 28 3 32 22 5 26 2 19 -17z"/>
<path d="M1400 853 c0 -4 5 -15 10 -23 8 -13 10 -13 10 2 0 9 -4 20 -10 23 -5
3 -10 3 -10 -2z"/>
<path d="M2590 775 c0 -15 11 -19 38 -16 8 1 16 -7 19 -18 6 -25 19 -27 27 -5
3 8 2 12 -4 9 -6 -3 -13 2 -17 12 -12 33 -63 48 -63 18z"/>
<path d="M2541 757 c-10 -16 -10 -19 -1 -10 7 6 19 9 26 6 8 -3 14 -1 14 5 0
20 -27 19 -39 -1z"/>
<path d="M1787 718 c12 -63 19 -82 32 -86 10 -3 11 0 5 9 -5 8 -7 23 -6 35 4
26 -14 74 -28 74 -5 0 -7 -13 -3 -32z"/>
<path d="M890 721 c0 -5 6 -14 14 -20 12 -10 13 -8 9 8 -5 21 -23 30 -23 12z"/>
<path d="M1650 723 c0 -14 19 -38 25 -32 8 8 -5 39 -16 39 -5 0 -9 -3 -9 -7z"/>
<path d="M2546 715 c-3 -8 -1 -15 4 -15 6 0 10 7 10 15 0 8 -2 15 -4 15 -2 0
-6 -7 -10 -15z"/>
<path d="M2577 719 c7 -7 15 -10 18 -7 3 3 -2 9 -12 12 -14 6 -15 5 -6 -5z"/>
<path d="M2436 702 c-3 -5 1 -9 9 -9 8 0 12 4 9 9 -3 4 -7 8 -9 8 -2 0 -6 -4
-9 -8z"/>
<path d="M2481 694 c6 -8 18 -14 26 -14 20 0 8 16 -17 23 -17 4 -19 3 -9 -9z"/>
<path d="M931 687 c-9 -11 -8 -17 3 -26 11 -9 15 -9 19 1 4 10 8 10 16 -2 6
-8 11 -10 11 -4 0 6 -8 18 -19 28 -15 14 -20 14 -30 3z"/>
<path d="M1127 681 c12 -11 30 -21 39 -21 9 0 18 -8 21 -18 6 -26 123 -47 123
-22 0 9 -10 16 -24 18 -24 2 -51 12 -96 37 -14 7 -38 17 -55 21 l-30 7 22 -22z"/>
<path d="M1320 660 c0 -5 5 -10 10 -10 6 0 10 5 10 10 0 6 -4 10 -10 10 -5 0
-10 -4 -10 -10z"/>
<path d="M1670 650 c0 -5 5 -10 11 -10 5 0 7 5 4 10 -3 6 -8 10 -11 10 -2 0
-4 -4 -4 -10z"/>
<path d="M1480 640 c0 -5 5 -10 10 -10 6 0 10 5 10 10 0 6 -4 10 -10 10 -5 0
-10 -4 -10 -10z"/>
<path d="M2292 596 c9 -17 7 -18 -13 -13 -14 4 -30 0 -40 -9 -20 -18 -69 -3
-69 21 0 16 -12 20 -23 8 -4 -3 0 -15 10 -25 13 -14 13 -18 2 -19 -8 0 -3 -5
10 -10 14 -5 39 -6 55 -2 17 4 34 8 39 9 4 1 19 2 34 3 14 0 23 4 20 7 -13 13
13 43 31 37 9 -3 14 -3 10 1 -4 5 -22 9 -41 10 -32 1 -34 -1 -25 -18z"/>
<path d="M1821 576 c-9 -10 -8 -15 4 -20 10 -4 15 1 15 14 0 24 -4 25 -19 6z"/>
<path d="M1628 548 c9 -9 15 -9 24 0 9 9 7 12 -12 12 -19 0 -21 -3 -12 -12z"/>
<path d="M1621 514 c0 -11 3 -14 6 -6 3 7 2 16 -1 19 -3 4 -6 -2 -5 -13z"/>
<path d="M1630 480 c0 -5 5 -10 11 -10 5 0 7 5 4 10 -3 6 -8 10 -11 10 -2 0
-4 -4 -4 -10z"/>
<path d="M2019 395 c-6 -67 -5 -126 2 -137 6 -8 9 2 10 27 1 22 3 51 4 65 1
14 -1 34 -6 45 -8 20 -8 20 -10 0z"/>
<path d="M1666 377 c3 -10 9 -15 12 -12 3 3 0 11 -7 18 -10 9 -11 8 -5 -6z"/>
<path d="M1841 324 c0 -11 3 -14 6 -6 3 7 2 16 -1 19 -3 4 -6 -2 -5 -13z"/>
<path d="M2062 310 c0 -14 2 -19 5 -12 2 6 2 18 0 25 -3 6 -5 1 -5 -13z"/>
<path d="M1490 280 c0 -5 5 -10 10 -10 6 0 10 5 10 10 0 6 -4 10 -10 10 -5 0
-10 -4 -10 -10z"/>
<path d="M2056 231 c-4 -7 -5 -15 -2 -18 9 -9 19 4 14 18 -4 11 -6 11 -12 0z"/>
<path d="M2020 77 c0 -47 4 -77 10 -77 11 0 6 137 -5 148 -3 3 -5 -29 -5 -71z"/>
<path d="M1415 90 c4 -6 11 -8 16 -5 14 9 11 15 -7 15 -8 0 -12 -5 -9 -10z"/>
<path d="M1429 68 c-6 -17 -5 -68 2 -68 5 0 10 3 10 8 6 33 5 53 -2 58 -5 3
-9 4 -10 2z"/>
<path d="M2113 49 c4 -13 7 -30 7 -36 0 -7 10 -12 23 -12 16 1 18 2 5 6 -11 3
-18 14 -18 28 0 13 -5 27 -12 31 -8 5 -9 0 -5 -17z"/>
<path d="M1571 34 c0 -11 3 -14 6 -6 3 7 2 16 -1 19 -3 4 -6 -2 -5 -13z"/>
<path d="M1845 30 c-3 -5 -1 -10 4 -10 6 0 11 5 11 10 0 6 -2 10 -4 10 -3 0
-8 -4 -11 -10z"/>
<path d="M1480 10 c0 -5 5 -10 11 -10 5 0 7 5 4 10 -3 6 -8 10 -11 10 -2 0 -4
-4 -4 -10z"/>
</g>
</svg>
